<?xml version="1.0" encoding="UTF-8"?>
<svg width="1001px" height="279px" viewBox="0 0 1001 279" version="1.1" xmlns="http://www.w3.org/2000/svg" xmlns:xlink="http://www.w3.org/1999/xlink">
    <!-- Generator: Sketch 44.1 (41455) - http://www.bohemiancoding.com/sketch -->
    <title>Group</title>
    <desc>Created with Sketch.</desc>
    <defs></defs>
    <g id="Page-1" stroke="none" stroke-width="1" fill="none" fill-rule="evenodd">
        <g id="Discover" transform="translate(-918.000000, 0.000000)">
            <g id="Home" transform="translate(-1.000000, 0.000000)">
                <g id="Base">
                    <g id="Group" transform="translate(816.000000, -259.000000)">
                        <path d="M36.8092053,432.442161 C59.513872,373.231166 176.060647,315.862898 230.038418,315.862898 C284.016188,315.862898 292.180686,369.66009 344.65892,383.627014 C397.137155,397.593938 590.33735,182.250577 687.40001,167.257108 C784.462671,152.263639 1188.62788,297.131955 1169.49868,405.092808 C1150.36949,513.05366 645.975377,561.34432 645.975377,561.34432 L355.767304,568.415632 L223.903173,568.415632 C223.903173,568.415632 14.1045386,491.653156 36.8092053,432.442161 Z" id="Path-6-Copy-4" fill="#F5F5F5" transform="translate(602.623297, 367.298417) rotate(198.000000) translate(-602.623297, -367.298417) "></path>
                        <path d="M351.359025,338.683821 C374.063692,279.472826 418.537506,217.277279 472.515276,217.277279 C526.493047,217.277279 588.195684,286.377391 639.58078,286.377391 C690.965876,286.377391 760.989684,133.272287 861.531101,132.904006 C962.072518,132.535724 1156.6085,231.065192 1137.47931,339.026044 C1118.35011,446.986897 845.493762,464.9471 845.493762,464.9471 L555.285688,472.018412 L423.421558,472.018412 C423.421558,472.018412 328.654358,397.894816 351.359025,338.683821 Z" id="Path-6-Copy-3" fill="#F2F2F2" transform="translate(743.319211, 302.460694) rotate(198.000000) translate(-743.319211, -302.460694) "></path>
                    </g>
                </g>
            </g>
        </g>
    </g>
</svg>