<?xml version="1.0" encoding="UTF-8"?>
<svg width="776px" height="333px" viewBox="0 0 776 333" version="1.1" xmlns="http://www.w3.org/2000/svg" xmlns:xlink="http://www.w3.org/1999/xlink">
    <!-- Generator: Sketch 44.1 (41455) - http://www.bohemiancoding.com/sketch -->
    <title>Group 3</title>
    <desc>Created with Sketch.</desc>
    <defs></defs>
    <g id="Page-1" stroke="none" stroke-width="1" fill="none" fill-rule="evenodd">
        <g id="Group-3" transform="translate(377.447245, 154.249176) rotate(-1.000000) translate(-377.447245, -154.249176) translate(-0.552755, 1.249176)" stroke="#000000">
            <path d="M256.530062,2.08810832 C260.193413,29.0595873 204.105544,197.551015 177.702563,222.949142 C151.299581,248.347269 152.962481,71.8923462 146.9589,55.7933824 C140.95532,39.6944187 77.8382967,166.789685 74.7198581,256.090081" id="Path" stroke-width="39" transform="translate(165.710520, 129.089095) rotate(-1.000000) translate(-165.710520, -129.089095) "></path>
            <path d="M269.566648,180.919501 C289.484865,197.005458 346.736373,159.125644 337.415143,145.343062 C328.093914,131.56048 301.336745,128.770885 280.407946,145.224371 C259.479148,161.677858 243.900957,202.79332 258.112089,217.348696 C272.323221,231.904071 326.75135,222.19371 330.331027,203.038561" id="Path-2" stroke-width="30" transform="translate(295.533805, 179.141760) rotate(-7.000000) translate(-295.533805, -179.141760) "></path>
            <path d="M442.206648,146.807811 C432.045397,118.45576 381.304926,143.815622 389.828552,165.799908 C398.352177,187.784194 454.536558,171.668412 450.751485,199.124219 C446.966412,226.580027 391.036187,242.749707 382.961192,210.362671" id="Path-3" stroke-width="30" transform="translate(416.947694, 181.264743) rotate(14.000000) translate(-416.947694, -181.264743) "></path>
            <g id="Group-5-Copy" transform="translate(0.948100, 14.947186)" stroke-width="39">
                <path d="M493.011566,0.978031016 C496.933657,25.4222424 503.954215,62.3045822 507.482233,105.631726 C511.01025,148.958869 512.590191,214.776267 510.618879,230.217999" id="Path-4-Copy"></path>
                <path d="M567.943437,10.5254908 C571.865528,34.9697022 578.886087,71.852042 582.414104,115.179185 C585.942122,158.506329 587.522063,224.323727 585.55075,239.765459" id="Path-4-Copy-4"></path>
                <path d="M642.875308,20.0729505 C646.797399,44.517162 653.817958,81.3995017 657.345975,124.726645 C660.873993,168.053789 662.453934,233.871187 660.482621,249.312918" id="Path-4-Copy-5"></path>
                <path d="M433.089709,109.526928 C471.868937,100.820299 536.377391,92.1170686 576.089073,89.4499102 C615.800756,86.7827518 669.899427,77.0493515 716.530461,85.5956536" id="Path-5" transform="translate(574.810085, 95.840356) rotate(15.000000) translate(-574.810085, -95.840356) "></path>
                <path d="M0.487389304,290.227103 C125.118483,269.719962 238.183245,259.466392 339.681673,259.466392 C491.929316,259.466392 577.55056,281.038567 631.70868,284.722121 C685.8668,288.405676 715.105762,273.530327 722.181149,267.378064 C729.256537,261.2258 746.836681,246.624328 753.065835,215.909402 C759.294989,185.194477 749.454636,166.516881 737.696861,148.115552 C725.939086,129.714223 716.328421,122.409247 706.94869,118.99227" id="Path-4"></path>
            </g>
        </g>
    </g>
</svg>